<svg width="21" height="19" viewBox="0 0 21 19" fill="none" xmlns="http://www.w3.org/2000/svg">
<mask id="path-1-inside-1_74_431" fill="white">
<path d="M5.46484 5.64914C5.46484 2.52921 7.99405 0 11.114 0C14.2339 0 16.7631 2.52921 16.7631 5.64914V5.82489H5.46484V5.64914Z"/>
</mask>
<path d="M3.96484 5.64914C3.96484 1.70078 7.16562 -1.5 11.114 -1.5C15.0623 -1.5 18.2631 1.70078 18.2631 5.64914H15.2631C15.2631 3.35763 13.4055 1.5 11.114 1.5C8.82248 1.5 6.96484 3.35763 6.96484 5.64914H3.96484ZM16.7631 5.82489H5.46484H16.7631ZM3.96484 5.82489V5.64914C3.96484 1.70078 7.16562 -1.5 11.114 -1.5V1.5C8.82248 1.5 6.96484 3.35763 6.96484 5.64914V5.82489H3.96484ZM11.114 -1.5C15.0623 -1.5 18.2631 1.70078 18.2631 5.64914V5.82489H15.2631V5.64914C15.2631 3.35763 13.4055 1.5 11.114 1.5V-1.5Z" fill="#FBFBFB" mask="url(#path-1-inside-1_74_431)"/>
<path d="M1.27185 8.20288C1.27185 13.3115 5.41322 17.4529 10.5219 17.4529H11C16.1086 17.4529 20.25 13.3115 20.25 8.20288V4.39065H1.27185V8.20288Z" stroke="#FBFBFB" stroke-width="1.5"/>
</svg>
