<svg width="20" height="19" viewBox="0 0 20 19" fill="none" xmlns="http://www.w3.org/2000/svg">
<path d="M12.157 16.8278C14.3092 15.1687 17.4151 12.5713 18.7094 10.4939C19.6779 8.94197 19.993 7.01922 19.5718 5.23147C18.6718 1.15915 13.688 -0.504894 10.5837 2.22413C10.4091 2.3766 10.2481 2.54563 10.0829 2.71919C10.0155 2.79002 9.94735 2.8616 9.87724 2.93312C9.80714 2.8616 9.73896 2.79001 9.67157 2.71918C9.50636 2.54563 9.34542 2.3766 9.17083 2.22413C6.06647 -0.504894 1.08273 1.15915 0.182727 5.23147C-0.238509 7.01922 0.0765657 8.94197 1.04506 10.4939C2.33935 12.5713 5.44527 15.1687 7.59754 16.8278C8.19724 17.2903 9.87724 18.4947 9.87724 18.4947C9.87724 18.4947 11.5572 17.2903 12.157 16.8278Z" fill="#D73E3E"/>
</svg>
