<svg width="18" height="17" viewBox="0 0 18 17" fill="none" xmlns="http://www.w3.org/2000/svg">
<path d="M10.8464 13.6747C12.5897 12.3557 15.1053 10.2905 16.1536 8.63894C16.938 7.40504 17.1932 5.87635 16.852 4.455C16.1231 1.21728 12.0865 -0.105729 9.57216 2.06399C9.43075 2.18522 9.30039 2.3196 9.16659 2.45759C9.112 2.51391 9.05679 2.57082 9 2.62768C8.94322 2.57082 8.888 2.5139 8.83341 2.45758C8.69961 2.3196 8.56926 2.18522 8.42785 2.06399C5.91349 -0.105729 1.87695 1.21728 1.148 4.455C0.806822 5.87635 1.06201 7.40504 1.84644 8.63894C2.89474 10.2905 5.41035 12.3557 7.15357 13.6747C7.6393 14.0424 9 15 9 15C9 15 10.3607 14.0424 10.8464 13.6747Z" stroke="#191919" stroke-width="1.7"/>
</svg>
