<svg width="30" height="26" viewBox="0 0 16 14" fill="none" xmlns="http://www.w3.org/2000/svg">
<path d="M9.84643 12.6747C11.5897 11.3557 14.1053 9.29054 15.1536 7.63894C15.938 6.40504 16.1932 4.87635 15.852 3.455C15.1231 0.217279 11.0865 -1.10573 8.57216 1.06399C8.43075 1.18522 8.30039 1.3196 8.16659 1.45759C8.112 1.51391 8.05679 1.57082 8 1.62768C7.94322 1.57082 7.888 1.5139 7.83341 1.45758C7.69961 1.3196 7.56926 1.18522 7.42785 1.06399C4.91349 -1.10573 0.876948 0.217279 0.147998 3.455C-0.193178 4.87635 0.0620138 6.40504 0.846438 7.63894C1.89474 9.29054 4.41035 11.3557 6.15357 12.6747C6.6393 13.0424 8 14 8 14C8 14 9.36071 13.0424 9.84643 12.6747Z" fill="#D73E3E"/>
</svg>
