<svg width="24" height="22" viewBox="0 0 24 22" fill="none" xmlns="http://www.w3.org/2000/svg">
<mask id="path-1-inside-1_443_64" fill="white">
<path d="M5.61215 6C5.61215 2.68629 8.29844 0 11.6122 0H12.44C15.7537 0 18.44 2.68629 18.44 6V6.98247H5.61215V6Z"/>
</mask>
<path d="M3.61215 6C3.61215 1.58172 7.19387 -2 11.6122 -2H12.44C16.8583 -2 20.44 1.58172 20.44 6H16.44C16.44 3.79086 14.6491 2 12.44 2H11.6122C9.40301 2 7.61215 3.79086 7.61215 6H3.61215ZM18.44 6.98247H5.61215H18.44ZM3.61215 6.98247V6C3.61215 1.58172 7.19387 -2 11.6122 -2V2C9.40301 2 7.61215 3.79086 7.61215 6V6.98247H3.61215ZM12.44 -2C16.8583 -2 20.44 1.58172 20.44 6V6.98247H16.44V6C16.44 3.79086 14.6491 2 12.44 2V-2Z" fill="#949494" mask="url(#path-1-inside-1_443_64)"/>
<path d="M1 11.8198C1 16.7904 5.02944 20.8198 10 20.8198H13.2505C18.221 20.8198 22.2505 16.7904 22.2505 11.8198V5.36365H1V11.8198Z" stroke="#949494" stroke-width="2"/>
</svg>
