<svg width="26" height="26" viewBox="0 0 26 26" fill="none" xmlns="http://www.w3.org/2000/svg">
<path d="M15.7697 21.9175C18.3845 19.8446 22.1579 16.5994 23.7304 14.004C24.9069 12.0651 25.2898 9.66284 24.778 7.42928C23.6846 2.34144 17.6298 0.262426 13.8582 3.67199C13.6461 3.86248 13.4506 4.07366 13.2499 4.2905C13.168 4.379 13.0852 4.46843 13 4.55778C12.9148 4.46843 12.832 4.37899 12.7501 4.29049C12.5494 4.07366 12.3539 3.86248 12.1418 3.67199C8.37024 0.262426 2.31542 2.34144 1.222 7.42928C0.710233 9.66284 1.09302 12.0651 2.26966 14.004C3.8421 16.5994 7.61553 19.8446 10.2304 21.9175C10.9589 22.4952 13 24 13 24C13 24 15.0411 22.4952 15.7697 21.9175Z" fill="none" stroke="#949494" stroke-width="2"/>
</svg>
