<svg width="20" height="23" viewBox="0 0 20 23" fill="none" xmlns="http://www.w3.org/2000/svg">
<rect x="1" y="8.5" width="18" height="13" rx="2" stroke="#999999" stroke-width="2"/>
<path d="M8 12.5L8 22.5" stroke="#999999" stroke-width="2"/>
<path d="M12 12.5L12 22.5" stroke="#999999" stroke-width="2"/>
<path d="M1.25 12.5H20" stroke="#999999" stroke-width="2"/>
<path d="M15.567 6.76634C17.0449 5.871 17.5038 4.27493 17.088 3.3568C16.6853 2.46782 15.2927 1.98767 13.8097 2.88614C13.0398 3.35255 12.237 4.29263 11.4733 5.46305C11.0477 6.11541 10.6577 6.80225 10.3137 7.45174C10.9881 7.49887 11.6992 7.53112 12.4116 7.50762C13.6535 7.46666 14.7578 7.25662 15.567 6.76634Z" stroke="#999999" stroke-width="2"/>
<path d="M4.92309 6.76634C3.4452 5.871 2.98634 4.27493 3.40216 3.3568C3.80477 2.46782 5.19736 1.98767 6.68041 2.88614C7.45029 3.35255 8.25314 4.29263 9.01678 5.46305C9.44242 6.11541 9.83243 6.80225 10.1764 7.45174C9.50206 7.49887 8.79093 7.53111 8.07847 7.50762C6.83658 7.46666 5.73236 7.25662 4.92309 6.76634Z" stroke="#999999" stroke-width="2"/>
</svg>
