<svg width="21" height="19" viewBox="0 0 21 19" fill="none" xmlns="http://www.w3.org/2000/svg">
<path d="M12.3908 15.5527L12.3907 15.5528C12.0939 15.7793 11.5161 16.1978 11.0007 16.5678C10.8725 16.6598 10.7491 16.7482 10.6362 16.8289C10.5234 16.7482 10.4 16.6598 10.2717 16.5678C9.75644 16.1978 9.17855 15.7793 8.88179 15.5528L8.8817 15.5527C7.7801 14.712 6.44403 13.6406 5.22361 12.5233C3.98882 11.3929 2.93105 10.2678 2.33455 9.31992L2.33416 9.31932C1.4747 7.95579 1.19369 6.25984 1.56785 4.68771L1.56795 4.68773L1.571 4.67405C2.33932 1.23222 6.60858 -0.170603 9.24805 2.12664L9.25054 2.12879C9.39056 2.24985 9.52556 2.38917 9.70221 2.5729C9.7715 2.64499 9.84704 2.72355 9.92565 2.80294L10.6362 3.52062L11.3468 2.80294C11.4254 2.72357 11.501 2.64505 11.5703 2.57291C11.7469 2.38918 11.8819 2.24985 12.022 2.12879L12.0244 2.12664C14.6639 -0.170604 18.9332 1.23222 19.7015 4.67405L19.7014 4.67407L19.7046 4.68771C20.0788 6.25983 19.7978 7.95579 18.9383 9.31933L18.938 9.31992C18.3415 10.2678 17.2837 11.3929 16.0489 12.5233C14.8285 13.6406 13.4924 14.712 12.3908 15.5527ZM9.92834 1.39304C9.92044 1.3861 9.91252 1.37919 9.90457 1.37232L9.92834 1.39304Z" fill="none" fill-opacity="0.5" stroke="black" stroke-width="2"/>
</svg>
