<svg width="28" height="24" viewBox="0 0 18 16" fill="none" xmlns="http://www.w3.org/2000/svg">
<path d="M11.0772 14.4854C13.0384 12.9779 15.8684 10.6178 17.0478 8.73022C17.9302 7.32005 18.2173 5.57297 17.8335 3.94857C17.0134 0.248319 12.4723 -1.26369 9.64368 1.21599C9.48459 1.35453 9.33794 1.50812 9.18741 1.66582C9.126 1.73018 9.06388 1.79522 9 1.86021C8.93612 1.79522 8.874 1.73017 8.81259 1.66581C8.66206 1.50812 8.51541 1.35453 8.35633 1.21599C5.52768 -1.26369 0.986566 0.248319 0.166498 3.94857C-0.217326 5.57297 0.0697655 7.32005 0.952242 8.73022C2.13158 10.6178 4.96165 12.9779 6.92277 14.4854C7.46921 14.9056 9 16 9 16C9 16 10.5308 14.9056 11.0772 14.4854Z" fill="#D73E3E" fill-opacity="0.5"/>
<path d="M10.8464 13.6747C12.5897 12.3557 15.1053 10.2905 16.1536 8.63894C16.938 7.40504 17.1932 5.87635 16.852 4.455C16.1231 1.21728 12.0865 -0.105729 9.57216 2.06399C9.43075 2.18522 9.30039 2.3196 9.16659 2.45759C9.112 2.51391 9.05679 2.57082 9 2.62768C8.94322 2.57082 8.888 2.5139 8.83341 2.45758C8.69961 2.3196 8.56926 2.18522 8.42785 2.06399C5.91349 -0.105729 1.87695 1.21728 1.148 4.455C0.806822 5.87635 1.06201 7.40504 1.84644 8.63894C2.89474 10.2905 5.41035 12.3557 7.15357 13.6747C7.6393 14.0424 9 15 9 15C9 15 10.3607 14.0424 10.8464 13.6747Z" fill="#D73E3E"/>
</svg>
