<svg width="14" height="12" viewBox="0 0 14 12" fill="none" xmlns="http://www.w3.org/2000/svg">
<path d="M8.61563 10.8641C10.1409 9.73342 12.3421 7.96332 13.2594 6.54766C13.9457 5.49004 14.169 4.17973 13.8705 2.96142C13.2327 0.186239 9.7007 -0.947768 7.50064 0.911995C7.3769 1.0159 7.26284 1.13109 7.14576 1.24936C7.098 1.29764 7.04969 1.34642 7 1.39515C6.95032 1.34642 6.902 1.29763 6.85424 1.24936C6.73716 1.13109 6.6231 1.0159 6.49936 0.911995C4.2993 -0.947768 0.767329 0.186239 0.129499 2.96142C-0.169031 4.17973 0.0542621 5.49004 0.740633 6.54766C1.65789 7.96332 3.85906 9.73342 5.38437 10.8641C5.80938 11.1792 7 12 7 12C7 12 8.19062 11.1792 8.61563 10.8641Z" fill="#191919" fill-opacity="0.5"/>
</svg>
