<svg width="20" height="19" viewBox="0 0 20 19" fill="none" xmlns="http://www.w3.org/2000/svg">
<g clip-path="url(#clip0_431_525)">
<path d="M16.6666 17.4167C17.1269 17.4167 17.5 17.0623 17.5 16.625C17.5 16.1878 17.1269 15.8334 16.6666 15.8334C16.2064 15.8334 15.8333 16.1878 15.8333 16.625C15.8333 17.0623 16.2064 17.4167 16.6666 17.4167Z" stroke="#999999" stroke-width="2" stroke-linecap="round" stroke-linejoin="round"/>
<path d="M7.50002 17.4167C7.96026 17.4167 8.33335 17.0623 8.33335 16.625C8.33335 16.1878 7.96026 15.8334 7.50002 15.8334C7.03978 15.8334 6.66669 16.1878 6.66669 16.625C6.66669 17.0623 7.03978 17.4167 7.50002 17.4167Z" stroke="#999999" stroke-width="2" stroke-linecap="round" stroke-linejoin="round"/>
<path d="M0.833313 0.791626H4.16665L6.39998 11.392C6.47618 11.7565 6.6849 12.0839 6.9896 12.3169C7.2943 12.55 7.67556 12.6737 8.06665 12.6666H16.1666C16.5577 12.6737 16.939 12.55 17.2437 12.3169C17.5484 12.0839 17.7571 11.7565 17.8333 11.392L19.1666 4.74996H4.99998" stroke="#999999" stroke-width="2" stroke-linejoin="round"/>
</g>
<defs>
<clipPath id="clip0_431_525">
<rect width="20" height="19" fill="white"/>
</clipPath>
</defs>
</svg>
